<?xml version="1.0" encoding="utf-8"?>
<!-- Generator: Adobe Illustrator 19.2.1, SVG Export Plug-In . SVG Version: 6.00 Build 0)  -->
<svg version="1.1" id="Layer_1" xmlns="http://www.w3.org/2000/svg" xmlns:xlink="http://www.w3.org/1999/xlink" x="0px" y="0px"
	 viewBox="0 0 1792 1792" style="enable-background:new 0 0 1792 1792;" xml:space="preserve">
<style type="text/css">
	.st0{fill:#363636;}
</style>
<path class="st0" d="M1395,736c0,8.7-3.3,16.3-10,23l-466,466c-6.7,6.7-14.3,10-23,10s-16.3-3.3-23-10L407,759
	c-6.7-6.7-10-14.3-10-23s3.3-16.3,10-23l50-50c6.7-6.7,14.3-10,23-10s16.3,3.3,23,10l393,393l393-393c6.7-6.7,14.3-10,23-10
	s16.3,3.3,23,10l50,50C1391.7,719.7,1395,727.3,1395,736z"/>
</svg>
