<?xml version="1.0" encoding="utf-8"?>
<!-- Generator: Adobe Illustrator 19.0.0, SVG Export Plug-In . SVG Version: 6.00 Build 0)  -->
<svg version="1.1" id="Layer_1" xmlns="http://www.w3.org/2000/svg" xmlns:xlink="http://www.w3.org/1999/xlink" x="0px" y="0px"
	 viewBox="0 0 333.8 201.7" style="enable-background:new 0 0 333.8 201.7;" xml:space="preserve">
<style type="text/css">
	.st0{fill:#242420;}
</style>
<g>
	<path class="st0" d="M88.8,1h10.8c0.2,0,0.2-1,0-1H73.4c-0.5,0-1.2,0.9-1.6,2.2L51.6,64.9L28.3,2.2C27.8,0.7,27.2,0,26.5,0H0.2
		c-0.2,0-0.2,1,0,1H11c0.5,0,0.7,0.1,0.7,0.5v83.8c0,0.4-0.2,0.5-0.7,0.5H0.2c-0.2,0-0.2,1,0,1h24.1c0.2,0,0.2-1,0-1H13.5
		c-0.6,0-0.7-0.1-0.7-0.5V2.6l31.5,85.8c0.1,0.4,1,0.4,1.1,0L72.8,2.8v82.5c0,0.4-0.2,0.5-0.7,0.5H61.2c-0.2,0-0.2,1,0,1h38.3
		c0.2,0,0.2-1,0-1H88.8c-0.5,0-0.7-0.1-0.7-0.5V1.5C88,1.1,88.3,1,88.8,1z"/>
	<path class="st0" d="M167.1,85.8h-6.7c-0.2,0-0.2,1,0,1h26.4c0.2,0,0.2-1,0-1H180c-0.5,0-0.7-0.1-0.7-0.5V45.9
		c2.6-9.2,5.9-10.3,8.3-10.3c1.8,0,3.3,1.2,3.3,3.3c0,2.1-1.6,2.3-1.6,5.1c0,2.4,2.1,4.4,5.8,4.4c3.2,0,5.9-2.6,5.9-6.1
		c0-5.3-4-8.8-10-8.8c-5.4,0-9.3,2.4-11.6,9.5V35c0-0.2-0.1-0.4-0.4-0.4h-18.5c-0.2,0-0.2,1,0,1h6.7c0.6,0,0.9,0.1,0.9,0.4v49.3
		C168,85.7,167.7,85.8,167.1,85.8z"/>
	<path class="st0" d="M236.6,76.7c-1.6,5.6-4.8,8.8-8.1,8.8c-2.1,0-3.5-1.2-3.5-3.5V36c0-0.2,0.2-0.4,0.9-0.4H236c0.2,0,0.2-1,0-1
		h-10.2c-0.6,0-0.9-0.2-0.9-0.5V14.1c0-0.2-0.9-0.2-0.9,0c-1.2,3.5-5.3,6.6-10.4,7.2v12.8c0,0.2-0.2,0.5-0.9,0.5h-8.6
		c-0.2,0-0.2,1,0,1h8.6c0.6,0,0.9,0.1,0.9,0.4v40c0,8,3.3,11.9,10.9,11.9c7,0,11-4.4,12.6-10.8C237.4,76.9,236.5,76.5,236.6,76.7z"
		/>
	<path class="st0" d="M259.3,87.7c6.6,0,11.9-2.9,13.5-8.1c0.9,4.7,4.8,8.1,10,8.1c4.7,0,8.1-2.6,8.8-4.8c0.1-0.2-0.6-0.7-0.7-0.5
		c-0.4,1.3-2.2,3.1-4.3,3.1c-1.8,0-3.1-1.2-3.1-4.2V55.6c0-15.3-7.3-22.1-19.9-22.1c-9.5,0-15.4,5.6-15.4,10c0,2.7,1.5,5.5,5.1,5.5
		c3.9,0,5.6-2.1,5.6-4.3c0-2-1.1-2.7-1.1-4.8c0-4,2.6-5.5,5.8-5.5c4.5,0,8.7,2.2,8.7,12v9.3c0,2.7-6.9,3.1-13.6,3.7
		c-4.8,0.5-16.3,2.7-16.3,15.5C242.4,84.6,251.2,87.7,259.3,87.7z M261,60.3c3.5-0.7,8.3-0.7,11.3-2.6v18.8c0,5-4.7,9.7-10.8,9.7
		c-4.3,0-8-2-8-11.4C253.5,63.6,256.9,61.1,261,60.3z"/>
	<path class="st0" d="M323.8,33.5c-5.4,0-9.3,2.4-11.6,9.5V35c0-0.2-0.1-0.4-0.4-0.4h-18.5c-0.2,0-0.2,1,0,1h6.7
		c0.6,0,0.9,0.1,0.9,0.4v49.3c0,0.4-0.2,0.5-0.9,0.5h-6.7c-0.2,0-0.2,1,0,1h26.4c0.2,0,0.2-1,0-1h-6.9c-0.5,0-0.7-0.1-0.7-0.5V45.9
		c2.6-9.2,5.9-10.3,8.3-10.3c1.8,0,3.3,1.2,3.3,3.3c0,2.1-1.6,2.3-1.6,5.1c0,2.4,2.1,4.4,5.8,4.4c3.2,0,5.9-2.6,5.9-6.1
		C333.8,37.1,329.8,33.5,323.8,33.5z"/>
	<path class="st0" d="M79.9,152.5H51.1c-0.2,0-0.2,1,0,1h4.4c6.5,0,9.5,2.4,8.9,9.2c-0.6,8.2-3.1,16.4-6.7,22.6
		c-9.2-14-19.8-31.7-24.4-46.6c8.7-5,13.3-11.4,13.3-17.3c0-6.5-2.9-10.6-11.1-10.6c-9.8,0-17.3,8.8-17.3,23c0,3.5,0.7,7.6,2.1,11.9
		c-13,8.4-20.1,18.2-20.1,30.8c0,14.8,11.5,25.2,27.3,25.2c7.5,0,14.3-2,20.8-6c4.2,3.9,8.6,5.9,13.2,5.9c7.2,0,15.3-3.5,18-9.9
		c0.1-0.2-0.6-0.7-0.7-0.6c-0.9,2.4-2.8,4.9-5.8,6c-0.6,0.2-1.3,0.4-2,0.4c-3.4,0-7.8-3.3-10.6-7.6c-1-1.6-1.2-2-2.2-3.5
		c3.5-6.2,6.2-14.3,7.1-23.6c0.6-6.9,3.5-9.2,9.7-9.2h4.8C80.2,153.5,80.2,152.5,79.9,152.5z M38.1,112.2c4.8,0,7.7,3.4,7.7,9.2
		c0,6-5.3,11.9-12.8,16.2c-1.5-5-2.2-9.7-2.2-14C30.8,115.9,34,112.2,38.1,112.2z M38.5,197c-17.4,0-26.6-14.7-26.6-31.1
		c0-8.1,3.5-15.4,8.7-19.5c4.2,12.7,13,27.4,20.2,39.3c2.3,3.9,4.4,6.7,7,9.2C44.6,196.4,42.2,197,38.5,197z"/>
	<path class="st0" d="M190.4,113.8h10.8c0.2,0,0.2-1,0-1h-26.2c-0.5,0-1.2,0.9-1.6,2.2l-20.2,62.7L129.9,115
		c-0.5-1.5-1.1-2.2-1.8-2.2h-26.3c-0.2,0-0.2,1,0,1h10.8c0.5,0,0.7,0.1,0.7,0.5v83.8c0,0.4-0.2,0.5-0.7,0.5h-10.8c-0.2,0-0.2,1,0,1
		h24.1c0.2,0,0.2-1,0-1h-10.8c-0.6,0-0.7-0.1-0.7-0.5v-82.7l31.5,85.8c0.1,0.4,1,0.4,1.1,0l27.4-85.5v82.5c0,0.4-0.2,0.5-0.7,0.5
		h-10.8c-0.2,0-0.2,1,0,1h38.3c0.2,0,0.2-1,0-1h-10.8c-0.5,0-0.7-0.1-0.7-0.5v-83.8C189.6,113.9,189.9,113.8,190.4,113.8z"/>
	<path class="st0" d="M232.2,198.6h-6.7c-0.6,0-0.9-0.1-0.9-0.5v-50.3c0-0.2,0-0.4-0.4-0.4h-18.6c-0.2,0-0.2,1,0,1h6.9
		c0.5,0,0.7,0.1,0.7,0.5v49.2c0,0.4-0.2,0.5-0.7,0.5h-6.9c-0.2,0-0.2,1,0,1h26.6C232.5,199.6,232.5,198.6,232.2,198.6z"/>
	<path class="st0" d="M226.2,117c0-4-3.3-7.3-7.2-7.3c-4,0-7.3,3.3-7.3,7.3s3.3,7.3,7.3,7.3C222.9,124.3,226.2,121,226.2,117z"/>
	<path class="st0" d="M262.6,198.6h-6.9c-0.5,0-0.7-0.1-0.7-0.5V110c0-0.2-0.1-0.4-0.4-0.4h-18.5c-0.2,0-0.2,1,0,1h6.7
		c0.6,0,0.9,0.1,0.9,0.5v87c0,0.4-0.2,0.5-0.9,0.5h-6.7c-0.2,0-0.2,1,0,1h26.4C262.8,199.6,262.8,198.6,262.6,198.6z"/>
	<path class="st0" d="M327.4,198.6h-8.1c-0.6,0-1-0.1-1.1-0.5L291.7,165l12.6-11.4c5.1-4.8,6-5.1,7-5.1h6.6c0.4,0,0.4-1,0-1h-18.4
		c-0.2,0-0.2,1,0,1c-0.1,0,8.2,0,8.2,0c0.7,0,0.7,0.4-4.7,5.1l-19,17.3V110c0-0.2-0.1-0.4-0.5-0.4h-18.5c-0.4,0-0.4,1,0,1h6.7
		c0.6,0,0.9,0.1,0.9,0.5v87c0,0.4-0.2,0.5-0.9,0.5h-6.7c-0.4,0-0.4,1,0,1h26.4c0.2,0,0.2-1,0-1h-6.7c-0.5,0-0.7-0.1-0.7-0.5v-26.6
		l20.9,26.6c0.2,0.4,0.1,0.5-0.5,0.5h-6.4c-0.2,0-0.2,1,0,1h29.2C327.7,199.6,327.7,198.6,327.4,198.6z"/>
	<path class="st0" d="M128.2,33.5c-14.1,0-25.6,12.2-25.6,27.2c0,14.9,11.5,27.2,25.6,27.2c14.3,0,25.8-12.2,25.8-27.2
		C154,45.8,142.5,33.5,128.2,33.5z M138.4,57.5h3.3v-3.3h0.9v3.3h3.3v0.9h-3.3v3.3h-0.9v-3.3h-3.3V57.5z M136.3,68h-7.4
		c0,0,0-0.6,0-0.6h1.8c0.1,0,0.2,0,0.2-0.1v-9.3c0-2.3-1.1-3.3-2.2-3.3c-2.7,0-3.8,2.1-3.8,3.8v8.8c0,0.1,0,0.1,0.2,0.1h1.8
		c0.1,0,0.1,0.6,0,0.6h-7.3c-0.1,0-0.1-0.6,0-0.6h1.8c0.1,0,0.2,0,0.2-0.1v-9.3c0-2.3-1-3.3-2.2-3.3c-2,0-3,1-3.7,3.2v9.4
		c0,0.1,0.1,0.1,0.2,0.1h1.8c0.1,0,0.1,0.6,0,0.6h-7.3c-0.1,0-0.1-0.6,0-0.6h1.8c0.2,0,0.3,0,0.3-0.1V55c0-0.1-0.1-0.1-0.3-0.1h-1.8
		c-0.1,0-0.1-0.6,0-0.6h5.2c0.1,0,0.1,0,0.1,0.1v2.1c0.6-1.8,2.3-2.5,3.7-2.5c3,0,4.6,1,5.3,2.6c0.8-1.9,2.4-2.6,3.9-2.6
		c3.4,0,5.4,1.3,5.4,4.7v8.5c0,0.1,0.1,0.1,0.2,0.1h1.9C136.3,67.4,136.3,68,136.3,68z M144,68c0,0,0-0.2,0-0.2h0.6c0,0,0.1,0,0.1,0
		v-3.2c0-0.8-0.4-1.1-0.8-1.1c-0.9,0-1.3,0.7-1.3,1.3v3.1c0,0,0,0,0.1,0h0.6c0,0,0,0.2,0,0.2h-2.5c0,0,0-0.2,0-0.2h0.6
		c0,0,0.1,0,0.1,0v-3.2c0-0.8-0.3-1.1-0.8-1.1c-0.7,0-1.1,0.3-1.3,1.1v3.3c0,0,0,0,0.1,0h0.6c0,0,0,0.2,0,0.2h-2.5c0,0,0-0.2,0-0.2
		h0.6c0.1,0,0.1,0,0.1,0v-4.2c0,0,0,0-0.1,0h-0.6c0,0,0-0.2,0-0.2h1.8c0,0,0,0,0,0V64c0.2-0.6,0.8-0.9,1.3-0.9c1,0,1.6,0.4,1.8,0.9
		c0.3-0.7,0.9-0.9,1.4-0.9c1.2,0,1.9,0.4,1.9,1.6v3c0,0,0,0,0.1,0h0.7c0,0,0,0.2,0,0.2H144z"/>
</g>
</svg>
